<?xml version="1.0" standalone="no"?>
<!DOCTYPE svg PUBLIC "-//W3C//DTD SVG 20010904//EN"
 "http://www.w3.org/TR/2001/REC-SVG-20010904/DTD/svg10.dtd">
<svg version="1.0" xmlns="http://www.w3.org/2000/svg"
 width="512.000000pt" height="512.000000pt" viewBox="0 0 512.000000 512.000000"
 preserveAspectRatio="xMidYMid meet">
<metadata>
Created by potrace 1.14, written by Peter Selinger 2001-2017
</metadata>
<g transform="translate(0.000000,512.000000) scale(0.100000,-0.100000)"
fill="#000000" stroke="none">
<path d="M1065 4669 c-184 -4 -218 -8 -274 -28 -105 -37 -142 -60 -217 -135
-55 -55 -81 -91 -115 -161 -42 -87 -43 -94 -49 -210 -3 -66 -6 -813 -5 -1660
1 -1178 4 -1555 14 -1605 31 -165 180 -333 353 -400 l83 -32 1696 -1 c1590 0
1699 1 1750 18 96 31 172 78 244 150 116 116 161 231 166 422 5 219 1 3037 -5
3133 -5 86 -10 103 -51 186 -58 118 -144 208 -248 259 -148 72 -30 67 -1662
69 -808 0 -1564 -1 -1680 -5z"/>
</g>
</svg>
